<svg xmlns="http://www.w3.org/2000/svg" xml:space="preserve" id="check-mark" x="0" y="0" version="1.1" viewBox="0 0 500 500">
  <circle cx="250" cy="250" r="200" style="fill:#3c9"></circle>
  <path d="M223.51 348.32c-5.12 0-10.24-1.95-14.14-5.86l-75.66-75.66c-7.81-7.81-7.81-20.47 0-28.28s20.47-7.81 28.28 0l61.52 61.52 114.5-114.49c7.81-7.81 20.47-7.81 28.28 0s7.81 20.47 0 28.28L237.65 342.46c-3.9 3.91-9.02 5.86-14.14 5.86" style="fill:#fff"></path>
  <path d="M415 260c-5.52 0-10-4.48-10-10 0-45.73-20.06-88.91-55.03-118.46-4.22-3.56-4.75-9.87-1.18-14.09 3.56-4.22 9.87-4.75 14.09-1.19C402.36 149.62 425 198.37 425 250c0 5.52-4.48 10-10 10" style="fill:#3eedae"></path>
  <circle cx="411" cy="282" r="10" style="fill:#3eedae"></circle>
</svg>
